<svg width="33" height="26" viewBox="0 0 33 26" fill="none" xmlns="http://www.w3.org/2000/svg">
<mask id="mask0_706_31" style="mask-type:luminance" maskUnits="userSpaceOnUse" x="0" y="0" width="33" height="26">
<path d="M0 0H32.0833V25.8765H0V0Z" fill="white"/>
</mask>
<g mask="url(#mask0_706_31)">
<mask id="mask1_706_31" style="mask-type:luminance" maskUnits="userSpaceOnUse" x="-11" y="-13" width="58" height="51">
<path d="M25.863 -12.5266L46.7964 17.7541L10.7434 37.447L-10.1899 7.16619L25.863 -12.5266Z" fill="white"/>
</mask>
<g mask="url(#mask1_706_31)">
<mask id="mask2_706_31" style="mask-type:luminance" maskUnits="userSpaceOnUse" x="-11" y="-13" width="58" height="51">
<path d="M25.863 -12.5266L46.7964 17.7541L10.7434 37.447L-10.1899 7.16619L25.863 -12.5266Z" fill="white"/>
</mask>
<g mask="url(#mask2_706_31)">
<path d="M32.052 0.0724986C31.9585 0.12979 31.9316 0.213702 31.9712 0.324235C31.9878 0.366673 31.9795 0.41403 31.9512 0.450874C31.6398 0.862526 30.9402 1.54163 30.3404 1.51955C30.3066 1.51781 30.2848 1.54983 30.2998 1.57559C30.3463 1.65718 30.3662 1.71052 30.3574 1.73666C30.2973 1.87381 30.0254 1.95194 29.9802 1.88731C29.8908 1.80909 29.8184 1.77813 29.7666 1.7952C29.6645 1.80793 29.4804 2.07607 29.6891 2.10298L29.9004 2.10963C30.1593 2.17078 29.6263 2.54135 29.5409 2.55388C29.4783 2.578 29.4281 2.62429 29.4039 2.68149C29.2586 3.01376 29.0307 3.35973 28.7181 3.72045C28.6613 3.77784 28.4634 3.78257 28.5192 3.89956C28.5745 4.08301 28.2115 4.36378 28.1739 4.57124C28.1359 4.66374 28.0204 4.70541 27.9811 4.7735C27.8165 5.05967 27.6832 5.27832 27.5829 5.43004C27.4226 5.67117 27.5897 5.79626 27.7435 5.98782C28.1637 6.51193 28.5717 7.00373 28.9649 7.46206C29.0418 7.51694 29.027 7.77514 29.055 7.84815C29.099 7.9503 29.2237 7.86465 29.2891 8.00469C29.5193 8.46023 30.0974 9.38963 30.2513 10.0986C30.3322 10.5086 30.5513 10.8029 30.5883 11.1841C30.5961 11.2691 30.6432 11.4233 30.7297 11.6466C30.7749 11.7653 30.7772 11.9263 30.735 12.1293C30.7235 12.23 30.5486 12.2068 30.4732 12.2195C30.2249 12.3179 30.7013 12.5173 30.8149 12.5336C30.8487 12.5415 30.8527 12.5821 30.822 12.5951C30.6039 12.6643 30.8404 12.731 30.8449 12.833L30.8326 13.1141C31.1121 13.3856 31.1424 14.0796 31.1013 14.4406C31.1022 14.5576 31.2248 15.095 31.0362 14.9832C30.9114 14.8534 31.14 14.7234 31.0247 14.6082C30.8454 14.4733 30.6358 15.0072 30.9608 15.1791C31.0826 15.2942 30.5818 15.2638 30.7857 15.6976C30.9017 15.8735 31.0658 15.234 31.163 15.4449C31.1793 15.7656 31.0548 16.0664 31.0526 16.3519C31.0473 16.9033 30.9502 17.5818 30.7604 18.3863C30.7307 18.5132 30.6312 18.5701 30.4604 18.5564C30.3949 18.5519 30.3586 18.6221 30.4064 18.6626C30.4585 18.7179 30.5877 18.7301 30.6046 18.816C30.6668 19.0576 30.7629 19.297 30.5308 19.4691C30.4104 19.4828 30.4761 20.1101 30.3317 19.9591C30.226 19.5787 29.5951 19.5261 29.7309 19.7739C29.9372 19.9884 30.0119 20.2029 29.9566 20.4156C29.9291 20.5212 30.081 20.5854 30.1562 20.5016C30.2786 20.3655 30.3496 20.245 30.3707 20.1403C30.375 20.1179 30.4095 20.1167 30.417 20.1377C30.4629 20.2737 30.3825 20.4359 30.3271 20.5768C30.3035 20.6389 30.2564 20.667 30.1857 20.6591C29.6344 20.7184 30.2891 21.419 29.8221 21.556C29.7979 21.5641 29.7725 21.5478 29.7742 21.5256L29.7762 21.4754C29.769 21.4246 29.6931 21.4771 29.7147 21.5052C29.8279 21.6484 29.8373 21.7767 29.7446 21.8903C29.5505 22.1296 29.4615 22.4287 29.3162 22.6465C28.9097 23.2522 28.7063 23.5558 28.7048 23.5578C28.5024 23.8592 27.0225 25.1562 27.0693 24.689C27.0401 24.6244 26.9355 24.6287 26.9097 24.6957C26.8317 24.8529 27.086 24.8429 26.922 24.9632C25.9911 25.4226 25.0242 25.7193 24.0195 25.8528C22.6044 25.9298 21.4773 24.4717 21.3267 23.3088C21.3339 23.2404 21.0682 22.8585 21.22 22.913L21.3279 23.1119C21.4637 23.2326 21.5318 22.9371 21.4022 22.8613C21.0786 22.5702 21.1314 22.5901 21.0339 22.2383C20.9226 22.104 20.8664 22.0063 20.868 21.9452C20.8768 21.403 20.7619 20.9891 20.761 20.4636C20.7982 19.8989 20.6237 19.1348 20.7906 18.5224C20.8524 18.3314 20.873 18.1666 20.8507 18.0278C20.8463 17.995 20.8588 17.9618 20.8846 17.9376L20.9667 17.8639C21.0467 17.7656 20.9318 17.5851 20.9819 17.4743C20.9751 17.3424 20.8191 17.2731 20.9222 17.1156C21.0353 16.1263 21.1547 15.1426 21.4311 14.193C21.8577 12.8785 21.9521 11.8524 22.5612 10.7786C22.5783 10.7542 22.6048 10.7372 22.6368 10.7324C22.8794 10.6942 23.0195 10.5611 23.0574 10.3353C23.0766 10.2179 22.9149 10.1477 22.8232 10.2342L22.6748 10.3757C22.6617 10.3926 22.6073 10.3915 22.6243 10.3643L22.8511 10.1108C22.8779 10.0798 22.8882 10.0415 22.8807 10.004C22.8093 9.65304 22.9192 9.4231 23.1159 9.09931C23.3924 8.40033 23.7141 7.92657 24.0566 7.24167C24.263 7.01202 24.4979 7.44017 24.5629 7.60934C24.568 7.62294 24.5704 7.63674 24.5702 7.65072L24.5792 8.16538C24.5798 8.18265 24.6019 8.192 24.6164 8.18023L24.864 7.98965C24.8996 7.96139 24.9177 7.92001 24.9114 7.87815C24.894 7.61793 24.648 7.42599 24.4234 7.22132C24.1379 6.71447 24.6434 6.52437 24.4572 6.41017C24.276 6.2872 23.8744 6.44326 24.0212 6.12362C24.0384 6.09922 24.027 6.06642 23.9966 6.05533C23.0768 5.73579 22.5951 5.19383 21.8714 4.85452C21.4421 4.73926 21.1976 4.49408 21.1385 4.11995C21.1347 4.07993 21.0941 4.04453 21.0607 4.02784C20.688 3.96081 21.0365 4.41046 20.7952 4.3604C18.7783 3.59623 16.0406 3.28199 13.8625 3.74842C12.4942 4.08697 11.3005 4.62072 10.2825 5.34922C10.2299 5.38384 10.1617 5.36696 10.1395 5.30398C10.0565 5.14927 9.79425 5.21833 9.80814 5.39194C9.83667 5.75257 9.56193 5.91008 9.22383 6.1867C9.17077 6.23077 9.08711 6.22229 9.04511 6.16982L8.98001 6.08581C8.88387 6.03266 8.93617 6.16837 8.92489 6.2191C8.92521 6.3225 8.73967 6.32636 8.72806 6.22721C8.7056 6.10867 8.5819 6.00759 8.35675 5.92551C8.32246 5.91278 8.28936 5.9447 8.30629 5.97325C8.65937 6.62072 7.80325 6.31305 8.06584 6.6758C8.1355 6.84439 7.76918 6.86011 7.99205 7.08716C8.03839 7.13365 8.02168 7.2057 7.95863 7.23126C7.79587 7.29877 7.75464 7.39686 7.83396 7.52591C7.88409 7.60664 7.77884 7.69181 7.69214 7.64233C7.68932 7.64011 7.64646 7.59054 7.56551 7.4938C7.54034 7.46351 7.5411 7.42165 7.56736 7.39214C7.75833 7.23637 7.44257 6.96139 7.48077 6.81035C7.49162 6.78305 7.55488 6.72711 7.66925 6.64069C7.76148 6.5044 7.46059 6.58157 7.37422 6.42069C7.23836 6.24418 6.94854 6.47634 7.11814 6.62969C7.31833 6.82105 7.41979 6.98212 7.42337 7.11224C7.43758 7.67946 7.45169 7.97624 7.46666 8.00199C7.48142 8.02543 7.46384 8.05514 7.43422 8.05745C7.35805 8.06392 7.29555 8.0615 7.24509 8.05003C7.15991 8.03122 7.0998 8.12439 7.16208 8.17975C7.23728 8.24553 7.29164 8.32414 7.3256 8.41625C7.34676 8.47142 7.3154 8.53257 7.25421 8.55466C6.98337 8.65226 6.99075 8.95772 6.84231 9.13191C6.61011 9.40217 6.48891 9.83706 6.24325 10.2065C6.11922 10.3505 5.93411 10.1773 5.83624 10.3836C5.80304 10.4419 5.88094 10.5013 5.94106 10.4634C7.46243 9.78045 8.8727 9.15834 10.607 8.58668C11.1914 8.39204 11.7316 8.44046 12.2273 8.72952C12.2653 8.75161 12.2648 8.80215 12.2258 8.82346C12.0129 8.94354 11.8263 9.09333 11.6691 9.2735C10.5244 9.95107 9.44475 9.98685 8.36271 10.5901C7.33363 11.1081 6.7465 11.4176 6.60143 11.5169C5.08884 12.5859 4.77027 12.5809 3.25388 13.9002C2.9136 14.188 2.47903 14.487 2.11065 14.638C1.74488 14.7649 0.324194 15.359 0.215578 15.1687C0.215578 15.1686 0.0190721 14.6796 0.0190721 14.6796C-0.00165274 14.6292 0.00301307 14.5725 0.032527 14.525C0.173803 14.2892 0.337866 14.0474 0.423912 13.8054C0.528404 13.4569 0.736086 13.1476 0.844484 12.8044C1.36749 10.631 1.60859 8.17088 1.14744 5.96177C1.13648 5.90487 1.1699 5.84883 1.22751 5.82366L3.0717 5.03527C3.10913 5.01984 3.1495 5.01665 3.18889 5.02659L3.90069 5.20647C4.09242 5.25614 3.94995 5.48762 4.04924 5.59343C4.20006 5.77273 4.27341 5.90747 4.27211 5.99756C4.25931 6.48897 4.35338 6.89937 4.32962 7.38915C4.20755 9.74727 4.30228 9.17416 5.50985 7.58118C6.18921 6.57472 7.40026 5.71804 8.41241 4.99669C13.4113 1.88442 19.5338 0.775624 24.7338 3.72287C24.991 3.8577 24.715 4.15419 24.6395 4.31131C24.5606 4.67551 24.3662 5.04482 24.3492 5.4802C24.3525 5.63442 24.3821 5.73656 24.4365 5.78864C24.538 5.88423 24.7179 5.81488 24.7099 5.68457C24.7073 5.65834 24.7061 5.49283 24.7051 5.19027C24.7046 5.01559 24.8292 4.82298 24.7861 4.66663C24.763 4.5534 24.8532 4.44624 24.9815 4.43535L25.9845 4.35047C26.1066 4.38162 26.5967 3.36976 26.6617 3.31121C26.7992 3.1131 26.977 3.02321 27.1444 2.79337C27.8586 1.90159 28.798 1.27861 29.7705 0.726048C30.3601 0.476048 31.4002 -0.134002 32.0432 0.0332432C32.0631 0.037487 32.0699 0.0615032 32.052 0.0724986ZM3.00215 8.25142C2.97382 8.20984 2.90123 8.24949 2.93021 8.29077C2.95842 8.33224 3.03101 8.2926 3.00215 8.25142ZM9.24249 5.56845C9.1929 5.63876 9.35642 5.72682 9.40362 5.65467C9.45321 5.58436 9.28969 5.4963 9.24249 5.56845ZM6.5577 7.67811C6.25269 7.79868 6.45701 8.21689 6.63539 7.87854C6.68758 7.67146 6.81833 7.32819 6.59166 7.17647C6.4352 7.10741 6.43639 7.59594 6.56551 7.61976C6.58928 7.63577 6.58494 7.66837 6.5577 7.67811ZM4.00106 9.41403C3.94453 9.39435 3.88539 9.54935 3.94377 9.5643C4.00041 9.58398 4.05944 9.42898 4.00106 9.41403ZM4.35512 9.4449C4.41881 10.0418 4.83624 9.67358 4.40796 9.4148C4.38311 9.39947 4.34991 9.41885 4.35512 9.4449ZM29.539 1.16577C29.4874 1.21534 29.6517 1.3441 29.7005 1.29154C29.7521 1.24196 29.5878 1.1133 29.539 1.16577ZM29.0894 1.45039C29.0529 1.45907 29.0266 1.48849 29.0266 1.52128C29.0249 1.80774 28.8118 2.0563 29.1498 2.25035C29.2181 2.2898 29.3066 2.23762 29.2925 2.16606L29.1567 1.49042C29.1515 1.46332 29.1201 1.44229 29.0894 1.45039ZM28.8309 2.3957C28.7942 2.46168 28.9578 2.52929 28.9906 2.46168C29.0273 2.3957 28.8638 2.32819 28.8309 2.3957ZM28.5806 2.90728C28.5972 3.10606 29.0526 2.87805 28.9969 2.84208C29.0355 2.79009 28.521 2.71746 28.5806 2.90728ZM26.1944 5.82742C26.4769 5.88153 25.8897 5.4149 26.2784 5.0644C26.3922 4.92136 26.2684 4.74052 26.1905 4.59526C25.8795 4.38654 25.7657 5.19422 25.7404 5.44499C25.6963 5.63596 26.069 5.74052 26.1944 5.82742ZM28.085 4.22354C28.106 4.28614 28.2579 4.24351 28.2346 4.18197C28.2136 4.11937 28.0617 4.162 28.085 4.22354ZM25.352 6.69518C25.2184 6.92329 25.4828 6.85143 25.5284 6.74978C25.5625 6.64397 25.4077 6.44268 25.352 6.69518ZM27.1919 6.22614C27.2377 6.222 27.4101 6.2898 27.4203 6.21467C27.4593 6.00373 27.4451 5.79221 27.3528 5.79347C27.2959 5.73917 27.0641 6.1948 27.1919 6.22614ZM26.707 6.29858C26.5666 6.45309 26.6632 6.63307 26.8321 6.38741C27.0642 6.19017 26.846 6.14146 26.707 6.29858ZM24.9047 7.37169C24.9281 7.47942 25.2223 7.42098 25.1918 7.3143C25.1683 7.20657 24.8741 7.26501 24.9047 7.37169ZM26.0383 7.56093C26.0003 7.46718 26.0089 7.38944 26.0654 7.32587C26.0946 7.29231 26.0516 7.24659 26.0093 7.26723C25.9489 7.29646 25.8952 7.30687 25.8457 7.29877C25.7664 7.27553 25.8024 7.18197 25.8935 7.2084C25.9999 7.2191 25.9647 6.97788 26.1748 6.84719C26.2618 6.66065 25.7065 6.84401 25.6436 7.09459C25.5707 7.20531 25.6762 7.46611 25.6906 7.58224C25.6971 7.61011 25.725 7.63008 25.7569 7.62902C25.8069 7.61436 26.0765 7.66384 26.0383 7.56093ZM26.2541 6.83677C26.2506 6.9175 26.4514 6.91847 26.4495 6.83774C26.453 6.75711 26.2524 6.75614 26.2541 6.83677ZM27.6283 6.72634C27.7345 6.89792 27.7441 7.01145 27.9194 6.93226C27.9468 6.91471 27.9568 6.88413 27.9443 6.85577C27.9725 6.81989 27.6276 6.63403 27.6283 6.72634ZM26.9007 7.73155C26.8863 7.71515 26.8802 7.58108 26.8363 7.59545C26.6441 7.6294 26.1072 7.77524 26.1502 7.82317C26.1529 7.91451 26.3862 7.85954 26.6909 7.8008C26.7082 7.78903 26.9192 7.77013 26.9007 7.73155ZM23.7914 22.1752L23.6881 22.5172C23.6567 22.5983 23.7539 22.677 23.839 22.6248C23.9634 22.5719 23.7617 22.292 23.7914 22.1752C23.8205 22.1233 23.9144 21.912 23.9884 22.0261L24.1697 22.7122C24.1441 22.7957 24.9762 23.9304 25.0165 24.0312C25.1448 24.2598 25.4899 24.2408 25.7317 24.2469C25.7747 24.2495 25.7974 24.2948 25.8214 24.3213C25.8552 24.3619 25.9238 24.361 25.956 24.3195L26.3796 23.7672C26.401 23.767 26.4037 23.5833 26.4044 23.5675C26.4006 23.5459 26.8766 22.4949 26.8838 22.4715C27.0697 22.2448 27.4365 22.0536 27.4017 21.7281C27.3865 21.0407 27.7767 20.4891 27.8035 19.795C27.8359 19.558 28.3034 19.0897 28.5077 18.9196C28.5382 18.8942 28.5196 18.8489 28.4778 18.8479C28.4121 18.8448 28.2988 18.8878 28.1369 18.975C28.0875 19.0019 28.0292 18.9584 28.0488 18.9111L28.1637 18.6433C28.3044 18.3799 28.6725 18.7925 28.8009 18.6639C28.9133 18.5074 28.5419 18.3555 28.3748 18.2789C28.2855 18.2497 28.2426 18.3009 28.2187 18.4094C28.2137 18.431 28.183 18.4378 28.1684 18.4206C28.0649 18.3077 28.2193 18.0274 28.1989 17.8465C28.1531 17.4448 28.14 16.7958 28.6326 16.6987C28.7397 16.7414 28.8313 16.7152 28.847 16.6218C28.9255 15.8952 29.6816 16.4334 29.8484 16.1969C29.8882 16.1307 29.8661 16.0402 29.7749 16.0231C29.4514 15.9583 29.0015 15.8215 29.2391 15.459C29.2631 15.4219 29.2653 15.3781 29.2459 15.3396C29.2459 15.3092 29.0344 15.1226 28.9694 15.2263C28.9189 15.3294 28.8102 15.3523 28.6421 15.2956C28.5603 15.2673 28.539 15.2161 28.5777 15.1409C28.6098 15.0767 28.528 15.0158 28.4595 15.0519C28.3151 15.1714 28.5418 15.4509 28.644 15.5828C28.6653 15.6076 28.7102 15.7379 28.777 15.9718C28.7882 16.0085 28.7715 16.0478 28.7364 16.0708C28.5361 16.1679 28.6007 16.4453 28.3931 16.5426C28.3473 16.5727 28.2829 16.5387 28.2903 16.4881C28.3445 16.2913 28.1944 16.0784 28.2282 15.8741C28.2297 15.8311 28.3502 15.3928 28.3087 15.362C28.2115 15.1623 28.3532 15.0121 28.2692 14.7029C28.2682 14.4936 28.5548 14.2625 28.6753 14.3137C28.8056 14.3465 28.8702 14.1199 28.724 14.116C28.5932 14.1171 28.4673 14.1581 28.3454 14.2398C28.2663 14.2932 28.1546 14.232 28.171 14.1451C28.2137 13.9141 28.1998 13.7242 28.1283 13.5758C27.883 12.9487 27.9566 12.5253 27.6381 11.7487C27.635 11.7378 27.6317 11.727 27.6312 11.716L27.6066 11.3469C27.6033 11.2846 27.5806 11.2253 27.542 11.1734C27.3123 10.8699 27.2008 10.5632 27.2081 10.2523C27.2093 10.2151 27.189 10.1797 27.155 10.1592C26.8559 9.98126 26.6832 9.23801 26.4949 8.9094L26.3572 8.74302C26.3339 8.71544 26.3277 8.67985 26.3381 8.64783C26.3445 8.53855 26.5067 8.46804 26.4158 8.39773C26.1914 8.29636 26.1619 8.4257 25.9811 8.47537C25.849 8.45965 25.9896 8.3007 26.051 8.25103C26.1477 8.10549 25.7618 8.11175 25.6933 8.12053C25.5229 8.16692 25.6914 8.5345 25.7282 8.60095C25.8322 9.08581 25.4947 9.99389 25.0618 10.2722C25.0738 10.314 25.1924 10.2983 25.1885 10.3653C25.1984 10.5146 25.2437 10.8821 24.9815 10.8193C24.8604 10.8 24.8829 11.0249 24.7812 11.062C24.6433 11.1512 24.551 11.2634 24.5052 11.3978C24.4487 11.5658 24.5899 11.7353 24.72 11.6554C24.8029 11.6244 24.8259 11.4535 24.884 11.2865C25.0265 11.3143 24.8445 11.6349 24.7723 11.7186C24.7349 11.6783 24.5908 12.5702 24.5757 12.5746C24.5688 12.6229 24.5109 12.6443 24.4673 12.6615C24.4466 12.6704 24.4213 12.6565 24.4225 12.6357L24.436 12.3377C24.4367 12.3285 24.4232 12.3234 24.4169 12.3306C24.2014 12.5931 24.3981 12.5832 24.468 12.7669C24.4379 13.4266 24.2857 13.6836 24.0302 14.8077C23.9692 15.0512 23.6628 15.4148 23.5386 15.7532C23.5338 15.7645 23.5318 15.7758 23.5296 15.787L23.4256 16.5786C23.4086 16.6598 23.5535 16.7295 23.587 16.6338L23.7737 15.9027C23.7819 15.8755 23.8266 15.8777 23.8298 15.9061C23.8716 16.3022 23.8113 16.6246 23.6467 16.8718C23.6131 16.9216 23.6139 16.9841 23.647 17.0339C23.7103 17.1315 23.7361 17.2507 23.7228 17.3914C23.7149 17.4761 23.5846 17.4945 23.5477 17.4165C23.5135 17.3387 23.3017 17.2327 23.3004 17.4069C23.321 17.6172 23.5449 17.5687 23.5505 17.6804C23.541 17.7221 23.5821 17.886 23.6723 18.17C23.723 18.2354 23.6103 18.7827 23.6275 19.0224C23.6462 19.2399 23.6486 19.5833 23.6331 20.0523C23.5894 20.215 23.7817 20.8348 23.8195 21.3333C23.7811 21.6034 23.6255 21.9148 23.7914 22.1752ZM27.6741 7.11667C27.5591 7.12834 27.611 7.41548 27.7238 7.39619C27.8388 7.38452 27.787 7.09748 27.6741 7.11667ZM27.2806 7.83494C27.1611 7.77505 26.984 8.07771 27.1084 8.12989C27.2278 8.18988 27.4049 7.88712 27.2806 7.83494ZM26.8937 8.13915C26.8933 8.15265 26.4934 8.385 26.5463 8.40439C26.7132 8.60346 27.0971 8.33976 26.9209 8.14571C26.9162 8.13616 26.9033 8.13201 26.8937 8.13915ZM23.8893 10.9981C24.2469 10.5521 23.6579 10.4608 23.7973 10.6747C23.8505 10.7219 23.8905 10.7314 23.8359 10.8084C23.7847 10.8616 23.7811 11.0662 23.8893 10.9981ZM23.5706 11.8416L23.2886 11.4684C23.1632 11.3496 23.0537 11.5798 23.1518 11.6615C23.1597 11.6912 23.6027 12.0386 23.5706 11.8416ZM22.8085 12.3484C22.8221 12.329 22.7912 12.2895 22.7769 12.3191C22.7732 12.3254 22.7898 12.3754 22.8085 12.3484ZM24.1155 13.1683C24.1008 13.1776 24.0846 13.1952 24.0681 13.2206C24.051 13.2488 24.089 13.2772 24.1162 13.2572C24.1446 13.2432 24.186 13.1481 24.1155 13.1683ZM30.1235 11.5826C30.1376 11.6563 30.2442 11.8144 30.141 11.87L29.8252 12.0765C29.7824 12.1048 29.7814 12.1608 29.8238 12.1892C29.9672 12.3356 30.1032 12.1222 30.2553 12.1233C30.7739 12.1677 30.7552 11.4647 30.4827 11.4757C30.4827 11.4758 30.1574 11.5314 30.1574 11.5314C30.1318 11.5353 30.1158 11.5592 30.1235 11.5826ZM28.5623 13.2431C28.4789 13.0687 28.2945 13.2733 28.3423 13.4061C28.3742 13.4866 28.2451 13.5769 28.2249 13.6212C28.2178 13.787 28.4889 13.7751 28.5322 13.6358C28.579 13.5171 28.5887 13.386 28.5623 13.2431ZM20.9876 17.3774C20.953 17.4823 21.3851 17.574 21.4075 17.4665C21.4421 17.3615 21.0101 17.2698 20.9876 17.3774ZM21.9277 17.008C21.7978 16.9441 21.8028 17.0395 21.8922 17.0815C21.9482 17.1085 21.963 17.0272 21.9277 17.008ZM22.1421 17.4136C22.1523 17.4683 22.3242 17.4376 22.31 17.3837C22.2999 17.3289 22.1279 17.3597 22.1421 17.4136ZM28.7303 14.5735C28.7162 14.5054 28.6269 14.5243 28.5735 14.5361C28.5349 14.5427 28.5101 14.5764 28.5172 14.6102L28.5939 14.9617C28.6081 15.0505 28.8316 15.0119 28.8071 14.925L28.7303 14.5735ZM23.3116 17.8363C23.2138 17.8425 23.2421 18.075 23.3399 18.0621C23.4377 18.0559 23.4094 17.8234 23.3116 17.8363ZM29.7681 14.4108C29.7507 14.4684 29.8951 14.4991 29.9088 14.4407C29.9262 14.3831 29.7819 14.3525 29.7681 14.4108ZM28.7601 16.7724C28.5475 16.7426 28.4563 16.9194 28.5577 17.0756C28.686 17.2508 28.6958 17.3838 28.5872 17.4746C28.5015 17.5793 28.6107 17.6995 28.5323 17.8456C28.5109 17.9088 28.558 17.975 28.632 17.9836L29.2142 18.0519C29.3534 18.0685 29.361 17.7745 29.2172 17.8023C29.0922 17.8404 28.9669 17.8271 28.8386 17.7625C28.6086 17.6179 29.0539 17.4408 28.8613 17.2506C28.7173 17.0914 29.0983 16.8353 28.7601 16.7724ZM29.3018 16.8314C29.297 16.8529 29.3074 16.8762 29.3282 16.8899C29.5572 17.0329 29.6326 17.2156 29.5546 17.4407C29.5352 17.4966 29.6128 17.5372 29.6581 17.4961C29.6937 17.4446 30.0101 17.228 29.9835 17.156C29.9566 16.8613 29.7651 16.6312 29.4102 16.4639C29.3954 16.4569 29.3774 16.4655 29.3744 16.4797L29.3018 16.8314ZM23.2835 20.3226C23.2332 20.3891 23.2998 20.4772 23.378 20.447C23.4536 20.3884 23.4264 20.2375 23.2835 20.3226ZM30.2236 17.7635C30.203 17.7458 30.1675 17.7601 30.1685 17.786C30.1712 17.8575 30.1332 17.9664 30.0512 18.1119C30.0131 18.1668 30.1286 18.2396 30.164 18.181C30.2116 18.0695 30.3922 17.9028 30.2236 17.7635ZM29.7166 18.4413C29.7358 18.2858 29.4816 18.3148 29.3758 18.2994C29.2717 18.2903 29.2257 18.3818 29.2302 18.4614C29.211 18.6169 29.4651 18.5878 29.5709 18.6032C29.6751 18.6123 29.721 18.5208 29.7166 18.4413ZM28.3318 19.4473C28.3102 19.4149 28.2534 19.446 28.2762 19.4776C28.2978 19.51 28.3546 19.479 28.3318 19.4473ZM23.4132 23.2278C23.3696 23.2442 23.4642 23.4115 23.5042 23.391C23.5478 23.3746 23.4532 23.2072 23.4132 23.2278ZM30.4071 19.4335C30.4063 19.4698 30.4829 19.506 30.4614 19.4504C30.4507 19.441 30.4113 19.3973 30.4071 19.4335ZM22.947 23.7977C23.0023 23.7533 22.8512 23.7203 22.8796 23.7842C22.9004 23.8081 22.9229 23.8121 22.947 23.7977ZM28.1929 21.5602C28.5538 21.2985 28.4224 21.3742 28.2314 21.0057C28.0959 20.834 27.8414 20.9851 28.0068 21.1498C28.28 21.3399 28.0444 21.6146 28.1929 21.5602ZM28.9263 20.6676C28.9189 20.5874 28.7995 20.562 28.7647 20.6326C28.7637 20.6332 28.767 20.6665 28.774 20.7319C28.7993 20.8312 28.941 20.6932 28.9263 20.6676ZM28.8341 21.9672C28.7494 21.8999 28.5661 22.0929 28.6554 22.1557C28.74 22.2231 28.9234 22.03 28.8341 21.9672ZM24.8424 24.3295C24.8634 24.4243 25.1375 24.3718 25.111 24.2772C25.09 24.1825 24.8159 24.2348 24.8424 24.3295ZM28.1993 23.3773C28.1739 23.4716 28.1054 23.5732 27.9954 23.6824C27.9766 23.7002 27.9795 23.7288 28.0026 23.7439C28.0951 23.8568 28.3682 23.2237 28.1993 23.3773ZM26.9763 24.25C26.9966 24.3324 27.2804 24.2645 27.2511 24.1837C27.2307 24.1012 26.947 24.169 26.9763 24.25Z" fill="#2D4D31"/>
</g>
</g>
</g>
</svg>
