<svg xmlns="http://www.w3.org/2000/svg" xmlns:xlink="http://www.w3.org/1999/xlink" width="500" zoomAndPan="magnify" viewBox="0 0 375 374.999991" height="500" preserveAspectRatio="xMidYMid meet" version="1.0"><defs><g/><clipPath id="d4dd229197"><rect x="0" width="223" y="0" height="78"/></clipPath><clipPath id="52b5951814"><path d="M 87 46 L 97 46 L 97 55 L 87 55 Z M 87 46 " clip-rule="nonzero"/></clipPath><clipPath id="3e5ec66113"><path d="M 80.867188 46.132812 L 91.4375 38.867188 L 98.5 49.144531 L 87.929688 56.40625 Z M 80.867188 46.132812 " clip-rule="nonzero"/></clipPath><clipPath id="c91b53784f"><path d="M 80.867188 46.132812 L 91.4375 38.867188 L 98.5 49.144531 L 87.929688 56.40625 Z M 80.867188 46.132812 " clip-rule="nonzero"/></clipPath><clipPath id="944f05f580"><path d="M 83 43 L 88 43 L 88 48 L 83 48 Z M 83 43 " clip-rule="nonzero"/></clipPath><clipPath id="2abd7e54d7"><path d="M 80.867188 46.132812 L 91.4375 38.867188 L 98.5 49.144531 L 87.929688 56.40625 Z M 80.867188 46.132812 " clip-rule="nonzero"/></clipPath><clipPath id="31d47d815b"><path d="M 80.867188 46.132812 L 91.4375 38.867188 L 98.5 49.144531 L 87.929688 56.40625 Z M 80.867188 46.132812 " clip-rule="nonzero"/></clipPath><clipPath id="eadb320b0b"><path d="M 87 40 L 91 40 L 91 46 L 87 46 Z M 87 40 " clip-rule="nonzero"/></clipPath><clipPath id="e5c2378591"><path d="M 80.867188 46.132812 L 91.4375 38.867188 L 98.5 49.144531 L 87.929688 56.40625 Z M 80.867188 46.132812 " clip-rule="nonzero"/></clipPath><clipPath id="8a0c313d86"><path d="M 80.867188 46.132812 L 91.4375 38.867188 L 98.5 49.144531 L 87.929688 56.40625 Z M 80.867188 46.132812 " clip-rule="nonzero"/></clipPath><clipPath id="a6721fb9b3"><path d="M 91 41 L 95 41 L 95 46 L 91 46 Z M 91 41 " clip-rule="nonzero"/></clipPath><clipPath id="00b36b2b72"><path d="M 80.867188 46.132812 L 91.4375 38.867188 L 98.5 49.144531 L 87.929688 56.40625 Z M 80.867188 46.132812 " clip-rule="nonzero"/></clipPath><clipPath id="bb00df3570"><path d="M 80.867188 46.132812 L 91.4375 38.867188 L 98.5 49.144531 L 87.929688 56.40625 Z M 80.867188 46.132812 " clip-rule="nonzero"/></clipPath><clipPath id="5318630c8a"><path d="M 83 47 L 87 47 L 87 51 L 83 51 Z M 83 47 " clip-rule="nonzero"/></clipPath><clipPath id="2fd6b8c9ad"><path d="M 80.867188 46.132812 L 91.4375 38.867188 L 98.5 49.144531 L 87.929688 56.40625 Z M 80.867188 46.132812 " clip-rule="nonzero"/></clipPath><clipPath id="18fee6f259"><path d="M 80.867188 46.132812 L 91.4375 38.867188 L 98.5 49.144531 L 87.929688 56.40625 Z M 80.867188 46.132812 " clip-rule="nonzero"/></clipPath><clipPath id="1bd26425f3"><rect x="0" width="106" y="0" height="144"/></clipPath></defs><g transform="matrix(1, 0, 0, 1, 123, 161)"><g clip-path="url(#d4dd229197)"><g fill="#2d4d31" fill-opacity="1"><g transform="translate(0.892556, 57.673583)"><g><path d="M 33.71875 -5.859375 C 33.71875 -4.953125 34.019531 -4.144531 34.625 -3.4375 C 35.238281 -2.738281 35.972656 -2.316406 36.828125 -2.171875 L 36.828125 -1.71875 L 23.828125 0.25 C 23.828125 0.25 23.8125 0.25 23.78125 0.25 C 23.757812 0.25 23.726562 0.25 23.6875 0.25 C 23.332031 0.25 23.015625 0.113281 22.734375 -0.15625 C 22.453125 -0.4375 22.3125 -0.753906 22.3125 -1.109375 L 22.296875 -3 C 21.390625 -2.332031 20.171875 -1.617188 18.640625 -0.859375 C 17.109375 -0.0976562 15.285156 0.285156 13.171875 0.296875 C 10.796875 0.316406 8.644531 -0.296875 6.71875 -1.546875 C 4.800781 -2.796875 3.5625 -4.476562 3 -6.59375 C 2.382812 -8.757812 2.597656 -10.878906 3.640625 -12.953125 C 4.679688 -15.035156 6.234375 -16.710938 8.296875 -17.984375 C 9.597656 -18.796875 11.253906 -19.570312 13.265625 -20.3125 C 15.285156 -21.050781 17.40625 -21.789062 19.625 -22.53125 C 21.84375 -23.28125 23.921875 -24.050781 25.859375 -24.84375 C 27.796875 -25.632812 29.378906 -26.5 30.609375 -27.4375 C 31.835938 -28.375 32.445312 -29.421875 32.4375 -30.578125 C 32.4375 -31.585938 31.988281 -32.597656 31.09375 -33.609375 C 30.207031 -34.617188 29.15625 -35.421875 27.9375 -36.015625 C 26.476562 -36.710938 24.863281 -37.179688 23.09375 -37.421875 C 21.332031 -37.660156 19.519531 -37.625 17.65625 -37.3125 C 14.78125 -36.90625 13.347656 -35.941406 13.359375 -34.421875 C 13.359375 -33.515625 13.632812 -32.734375 14.1875 -32.078125 C 14.75 -31.421875 15.296875 -30.726562 15.828125 -30 C 16.367188 -29.28125 16.640625 -28.335938 16.640625 -27.171875 C 16.648438 -25.554688 16.078125 -24.179688 14.921875 -23.046875 C 13.773438 -21.910156 12.394531 -21.335938 10.78125 -21.328125 C 9.164062 -21.316406 7.785156 -21.875 6.640625 -23 C 5.492188 -24.125 4.914062 -25.492188 4.90625 -27.109375 C 4.894531 -29.078125 5.566406 -30.804688 6.921875 -32.296875 C 8.285156 -33.796875 9.957031 -35.015625 11.9375 -35.953125 C 13.925781 -36.898438 15.804688 -37.503906 17.578125 -37.765625 C 21.597656 -38.390625 25.128906 -37.929688 28.171875 -36.390625 C 29.640625 -35.703125 30.90625 -34.71875 31.96875 -33.4375 C 33.039062 -32.15625 33.582031 -30.578125 33.59375 -28.703125 Z M 22.296875 -3.53125 L 22.1875 -22.59375 L 22.1875 -22.96875 C 21.1875 -22.507812 20.066406 -21.882812 18.828125 -21.09375 C 17.597656 -20.3125 16.53125 -19.25 15.625 -17.90625 C 14.726562 -16.5625 14.210938 -14.832031 14.078125 -12.71875 C 13.992188 -10.894531 14.15625 -9.289062 14.5625 -7.90625 C 14.96875 -6.519531 15.578125 -5.40625 16.390625 -4.5625 C 17.253906 -3.65625 18.253906 -3.101562 19.390625 -2.90625 C 20.523438 -2.707031 21.492188 -2.914062 22.296875 -3.53125 Z M 22.296875 -3.53125 "/></g></g></g><g fill="#2d4d31" fill-opacity="1"><g transform="translate(39.624793, 57.460147)"><g><path d="M 18.015625 -53.046875 C 20.585938 -53.066406 22.988281 -52.523438 25.21875 -51.421875 C 27.445312 -50.328125 29.242188 -48.96875 30.609375 -47.34375 C 31.972656 -45.71875 32.660156 -44.097656 32.671875 -42.484375 C 32.679688 -40.867188 32.109375 -39.472656 30.953125 -38.296875 C 29.804688 -37.128906 28.425781 -36.546875 26.8125 -36.546875 C 25.195312 -36.535156 23.816406 -37.101562 22.671875 -38.25 C 21.535156 -39.40625 20.960938 -40.789062 20.953125 -42.40625 C 20.953125 -43.457031 21.222656 -44.363281 21.765625 -45.125 C 22.316406 -45.894531 22.851562 -46.617188 23.375 -47.296875 C 23.90625 -47.984375 24.171875 -48.785156 24.171875 -49.703125 C 24.160156 -50.554688 23.773438 -51.191406 23.015625 -51.609375 C 22.265625 -52.035156 21.394531 -52.304688 20.40625 -52.421875 C 19.414062 -52.546875 18.617188 -52.601562 18.015625 -52.59375 C 17.410156 -52.59375 16.617188 -52.523438 15.640625 -52.390625 C 14.660156 -52.265625 13.789062 -51.984375 13.03125 -51.546875 C 12.28125 -51.117188 11.910156 -50.476562 11.921875 -49.625 C 11.921875 -48.613281 12.25 -47.753906 12.90625 -47.046875 C 13.5625 -46.347656 14.234375 -45.648438 14.921875 -44.953125 C 15.609375 -44.253906 16.003906 -43.398438 16.109375 -42.390625 L 16.203125 -26.796875 C 17.816406 -26.804688 19.195312 -27.394531 20.34375 -28.5625 C 21.5 -29.726562 22.078125 -31.09375 22.078125 -32.65625 L 22.53125 -32.65625 L 22.59375 -20.46875 L 22.140625 -20.46875 C 22.128906 -22.082031 21.539062 -23.46875 20.375 -24.625 C 19.207031 -25.78125 17.816406 -26.351562 16.203125 -26.34375 L 16.328125 -4.25 C 16.328125 -3.34375 16.628906 -2.535156 17.234375 -1.828125 C 17.847656 -1.128906 18.582031 -0.707031 19.4375 -0.5625 L 19.4375 -0.109375 L 1.890625 -0.015625 L 1.890625 -0.46875 C 2.742188 -0.625 3.472656 -1.054688 4.078125 -1.765625 C 4.679688 -2.472656 4.984375 -3.28125 4.984375 -4.1875 L 4.875 -23.1875 L 4.765625 -42.328125 C 4.753906 -43.941406 5.363281 -45.566406 6.59375 -47.203125 C 7.820312 -48.847656 9.4375 -50.226562 11.4375 -51.34375 C 13.445312 -52.46875 15.640625 -53.035156 18.015625 -53.046875 Z M 18.015625 -53.046875 "/></g></g></g><g fill="#2d4d31" fill-opacity="1"><g transform="translate(71.019057, 57.287147)"><g><path d="M 25.8125 -38.796875 C 27.425781 -38.753906 28.816406 -38.179688 29.984375 -37.078125 C 31.148438 -35.972656 31.734375 -34.613281 31.734375 -33 C 31.742188 -31.382812 31.175781 -29.992188 30.03125 -28.828125 C 28.882812 -27.671875 27.503906 -27.085938 25.890625 -27.078125 C 24.328125 -27.066406 22.957031 -27.632812 21.78125 -28.78125 C 20.613281 -29.9375 20.023438 -31.320312 20.015625 -32.9375 C 20.015625 -33.445312 20.050781 -33.828125 20.125 -34.078125 C 20.195312 -34.328125 20.234375 -34.601562 20.234375 -34.90625 C 20.222656 -35.664062 19.816406 -36.046875 19.015625 -36.046875 C 18.304688 -36.035156 17.351562 -35.726562 16.15625 -35.125 L 16.328125 -4.25 C 16.328125 -3.34375 16.628906 -2.535156 17.234375 -1.828125 C 17.847656 -1.128906 18.582031 -0.707031 19.4375 -0.5625 L 19.4375 -0.109375 L 1.890625 -0.015625 L 1.890625 -0.46875 C 2.742188 -0.625 3.472656 -1.054688 4.078125 -1.765625 C 4.679688 -2.472656 4.984375 -3.28125 4.984375 -4.1875 L 4.828125 -31.125 C 4.828125 -32.082031 4.519531 -32.898438 3.90625 -33.578125 C 3.289062 -34.253906 2.554688 -34.664062 1.703125 -34.8125 L 1.703125 -35.265625 L 14.625 -37.21875 C 14.675781 -37.21875 14.710938 -37.21875 14.734375 -37.21875 C 14.765625 -37.21875 14.804688 -37.21875 14.859375 -37.21875 C 15.253906 -37.226562 15.566406 -37.109375 15.796875 -36.859375 C 16.023438 -36.609375 16.140625 -36.304688 16.140625 -35.953125 L 16.140625 -35.578125 C 17.503906 -36.285156 19.085938 -37.019531 20.890625 -37.78125 C 22.703125 -38.550781 24.34375 -38.890625 25.8125 -38.796875 Z M 25.8125 -38.796875 "/></g></g></g><g fill="#2d4d31" fill-opacity="1"><g transform="translate(104.834118, 57.100808)"><g><path d="M 4.984375 -4.1875 L 4.828125 -31.125 C 4.828125 -32.082031 4.519531 -32.898438 3.90625 -33.578125 C 3.289062 -34.253906 2.554688 -34.664062 1.703125 -34.8125 L 1.703125 -35.265625 L 14.625 -37.21875 C 14.675781 -37.21875 14.710938 -37.21875 14.734375 -37.21875 C 14.765625 -37.21875 14.804688 -37.21875 14.859375 -37.21875 C 15.710938 -37.226562 16.140625 -36.804688 16.140625 -35.953125 L 16.328125 -4.25 C 16.328125 -3.34375 16.628906 -2.535156 17.234375 -1.828125 C 17.847656 -1.128906 18.582031 -0.707031 19.4375 -0.5625 L 19.4375 -0.109375 L 1.890625 -0.015625 L 1.890625 -0.46875 C 2.742188 -0.625 3.472656 -1.054688 4.078125 -1.765625 C 4.679688 -2.472656 4.984375 -3.28125 4.984375 -4.1875 Z M 16.296875 -47.15625 C 16.304688 -45.59375 15.734375 -44.226562 14.578125 -43.0625 C 13.429688 -41.894531 12.050781 -41.304688 10.4375 -41.296875 C 8.820312 -41.285156 7.441406 -41.859375 6.296875 -43.015625 C 5.160156 -44.171875 4.585938 -45.53125 4.578125 -47.09375 C 4.578125 -48.707031 5.140625 -50.09375 6.265625 -51.25 C 7.390625 -52.414062 8.757812 -53.003906 10.375 -53.015625 C 11.988281 -53.023438 13.378906 -52.453125 14.546875 -51.296875 C 15.710938 -50.148438 16.296875 -48.769531 16.296875 -47.15625 Z M 16.296875 -47.15625 "/></g></g></g><g fill="#2d4d31" fill-opacity="1"><g transform="translate(123.897607, 56.995757)"><g><path d="M 32.34375 -34.890625 C 32.800781 -33.992188 33.082031 -33.003906 33.1875 -31.921875 C 33.289062 -30.835938 33.347656 -29.84375 33.359375 -28.9375 C 33.378906 -25.101562 32.84375 -21.429688 31.75 -17.921875 C 30.664062 -14.410156 29.195312 -11.285156 27.34375 -8.546875 C 25.488281 -5.816406 23.390625 -3.660156 21.046875 -2.078125 C 18.710938 -0.503906 16.285156 0.285156 13.765625 0.296875 C 11.191406 0.316406 9.082031 -0.5625 7.4375 -2.34375 C 5.789062 -4.132812 4.957031 -6.796875 4.9375 -10.328125 L 4.828125 -31.125 C 4.828125 -32.082031 4.519531 -32.898438 3.90625 -33.578125 C 3.289062 -34.253906 2.554688 -34.664062 1.703125 -34.8125 L 1.703125 -35.265625 L 14.625 -37.21875 C 14.675781 -37.21875 14.710938 -37.21875 14.734375 -37.21875 C 14.765625 -37.21875 14.804688 -37.21875 14.859375 -37.21875 C 15.710938 -37.226562 16.140625 -36.804688 16.140625 -35.953125 L 16.28125 -11.296875 C 16.289062 -10.035156 15.96875 -9.007812 15.3125 -8.21875 C 14.664062 -7.425781 14.015625 -6.703125 13.359375 -6.046875 C 12.703125 -5.390625 12.378906 -4.582031 12.390625 -3.625 C 12.390625 -2.8125 12.78125 -2.140625 13.5625 -1.609375 C 14.351562 -1.085938 15.429688 -0.859375 16.796875 -0.921875 C 17.554688 -1.023438 18.347656 -1.253906 19.171875 -1.609375 C 19.992188 -1.972656 20.707031 -2.382812 21.3125 -2.84375 C 22.320312 -3.550781 23.300781 -4.410156 24.25 -5.421875 C 25.207031 -6.441406 26.113281 -7.5625 26.96875 -8.78125 C 28.363281 -10.800781 29.519531 -13.007812 30.4375 -15.40625 C 31.351562 -17.8125 32.007812 -20.273438 32.40625 -22.796875 C 32.644531 -24.066406 32.648438 -25.085938 32.421875 -25.859375 C 32.203125 -26.640625 31.585938 -27.03125 30.578125 -27.03125 C 29.921875 -27.019531 29.363281 -26.925781 28.90625 -26.75 C 28.457031 -26.570312 27.878906 -26.484375 27.171875 -26.484375 C 25.554688 -26.472656 24.160156 -27.046875 22.984375 -28.203125 C 21.816406 -29.359375 21.234375 -30.71875 21.234375 -32.28125 C 21.222656 -33.894531 21.796875 -35.285156 22.953125 -36.453125 C 24.109375 -37.617188 25.492188 -38.207031 27.109375 -38.21875 C 28.265625 -38.21875 29.304688 -37.914062 30.234375 -37.3125 C 31.171875 -36.707031 31.875 -35.898438 32.34375 -34.890625 Z M 32.34375 -34.890625 "/></g></g></g><g fill="#2d4d31" fill-opacity="1"><g transform="translate(160.057784, 56.796495)"><g><path d="M 26.296875 -4.984375 C 27.753906 -4.992188 29.148438 -5.351562 30.484375 -6.0625 C 31.828125 -6.769531 33.023438 -7.765625 34.078125 -9.046875 L 34.453125 -8.8125 C 32.953125 -6.082031 30.921875 -3.890625 28.359375 -2.234375 C 25.796875 -0.585938 22.972656 0.242188 19.890625 0.265625 C 16.710938 0.285156 13.820312 -0.550781 11.21875 -2.25 C 8.613281 -3.957031 6.519531 -6.253906 4.9375 -9.140625 C 3.351562 -12.035156 2.550781 -15.25 2.53125 -18.78125 C 2.519531 -22.3125 3.285156 -25.53125 4.828125 -28.4375 C 6.378906 -31.351562 8.445312 -33.671875 11.03125 -35.390625 C 13.625 -37.117188 16.507812 -37.992188 19.6875 -38.015625 C 22.46875 -38.023438 24.957031 -37.378906 27.15625 -36.078125 C 29.351562 -34.785156 31.203125 -33.019531 32.703125 -30.78125 C 34.203125 -28.539062 35.238281 -25.988281 35.8125 -23.125 L 13.875 -23 C 13.894531 -19.675781 14.46875 -16.640625 15.59375 -13.890625 C 16.71875 -11.148438 18.210938 -8.976562 20.078125 -7.375 C 21.953125 -5.769531 24.023438 -4.972656 26.296875 -4.984375 Z M 19.6875 -37.5625 C 18.632812 -37.550781 17.769531 -37.15625 17.09375 -36.375 C 16.414062 -35.59375 15.851562 -34.578125 15.40625 -33.328125 C 14.957031 -32.085938 14.632812 -30.8125 14.4375 -29.5 C 14.238281 -28.195312 14.09375 -26.988281 14 -25.875 C 13.90625 -24.769531 13.863281 -23.960938 13.875 -23.453125 L 25.515625 -23.515625 C 25.015625 -32.898438 23.070312 -37.582031 19.6875 -37.5625 Z M 19.6875 -37.5625 "/></g></g></g><g fill="#2d4d31" fill-opacity="1"><g transform="translate(197.882237, 56.588061)"><g><path d="M 20.40625 -2.828125 C 21.269531 -2.835938 22.03125 -3.070312 22.6875 -3.53125 L 22.6875 -3 C 21.769531 -2.34375 20.53125 -1.628906 18.96875 -0.859375 C 17.414062 -0.0976562 15.582031 0.285156 13.46875 0.296875 C 11.144531 0.304688 9.144531 -0.507812 7.46875 -2.15625 C 5.800781 -3.8125 4.960938 -5.800781 4.953125 -8.125 L 4.796875 -36.71875 L 1.6875 -36.703125 L 1.6875 -37.15625 C 4.507812 -37.164062 7.140625 -37.796875 9.578125 -39.046875 C 12.023438 -40.304688 14.050781 -41.972656 15.65625 -44.046875 L 16.109375 -44.046875 L 16.140625 -37.234375 L 21.0625 -37.25 L 21.0625 -36.796875 L 16.140625 -36.78125 L 16.3125 -6.90625 C 16.3125 -5.789062 16.71875 -4.832031 17.53125 -4.03125 C 18.34375 -3.226562 19.300781 -2.828125 20.40625 -2.828125 Z M 20.40625 -2.828125 "/></g></g></g></g></g><g transform="matrix(1, 0, 0, 1, 21, 115)"><g clip-path="url(#1bd26425f3)"><g fill="#2d4d31" fill-opacity="1"><g transform="translate(1.350166, 107.994266)"><g><path d="M 99.984375 -54.515625 C 100.003906 -50.347656 99.691406 -46.46875 99.046875 -42.875 C 99.410156 -45.238281 99.253906 -47.175781 98.578125 -48.6875 C 97.910156 -50.195312 96.628906 -50.945312 94.734375 -50.9375 C 93.503906 -50.9375 92.460938 -50.765625 91.609375 -50.421875 C 90.765625 -50.085938 89.679688 -49.914062 88.359375 -49.90625 C 86.847656 -49.894531 85.398438 -50.171875 84.015625 -50.734375 C 82.640625 -51.296875 81.453125 -52.070312 80.453125 -53.0625 C 79.453125 -54.050781 78.664062 -55.207031 78.09375 -56.53125 C 77.519531 -57.851562 77.226562 -59.269531 77.21875 -60.78125 C 77.195312 -63.8125 78.269531 -66.421875 80.4375 -68.609375 C 82.601562 -70.804688 85.203125 -71.910156 88.234375 -71.921875 C 90.410156 -71.929688 92.378906 -71.375 94.140625 -70.25 C 95.898438 -69.125 97.207031 -67.617188 98.0625 -65.734375 L 98.203125 -65.734375 C 98.972656 -64.035156 99.457031 -62.164062 99.65625 -60.125 C 99.863281 -58.09375 99.972656 -56.222656 99.984375 -54.515625 Z M 60.609375 -7 C 60.609375 -5.394531 61.347656 -4.097656 62.828125 -3.109375 C 64.304688 -2.128906 66.320312 -1.738281 68.875 -1.9375 C 70.289062 -2.132812 71.828125 -2.472656 73.484375 -2.953125 C 75.140625 -3.441406 76.625 -4.066406 77.9375 -4.828125 C 75.582031 -3.203125 73.175781 -1.9375 70.71875 -1.03125 C 68.257812 -0.125 65.753906 0.335938 63.203125 0.359375 C 58.367188 0.378906 54.40625 -1.273438 51.3125 -4.609375 C 48.226562 -7.953125 46.664062 -12.9375 46.625 -19.5625 L 46.46875 -48.96875 L 46.421875 -57.0625 L 46.40625 -58.625 C 46.394531 -60.425781 45.816406 -62.101562 44.671875 -63.65625 C 43.523438 -65.21875 42.148438 -66.132812 40.546875 -66.40625 L 64.796875 -70.09375 L 65.234375 -70.09375 C 66.835938 -70.101562 67.644531 -69.304688 67.65625 -67.703125 L 67.765625 -49.65625 L 67.921875 -21.390625 C 67.929688 -19.597656 67.5625 -18.082031 66.8125 -16.84375 C 66.0625 -15.601562 65.210938 -14.484375 64.265625 -13.484375 C 63.328125 -12.484375 62.476562 -11.484375 61.71875 -10.484375 C 60.96875 -9.484375 60.597656 -8.320312 60.609375 -7 Z M 23.265625 -6.796875 C 23.265625 -5.191406 24.003906 -3.894531 25.484375 -2.90625 C 26.960938 -1.925781 28.972656 -1.535156 31.515625 -1.734375 C 32.929688 -1.929688 34.46875 -2.269531 36.125 -2.75 C 37.78125 -3.238281 39.269531 -3.863281 40.59375 -4.625 C 38.226562 -3 35.816406 -1.726562 33.359375 -0.8125 C 30.910156 0.09375 28.40625 0.550781 25.84375 0.5625 C 21.019531 0.582031 17.0625 -1.070312 13.96875 -4.40625 C 10.875 -7.75 9.304688 -12.734375 9.265625 -19.359375 L 9.109375 -48.765625 L 9.0625 -56.859375 L 9.046875 -58.421875 C 9.035156 -60.222656 8.457031 -61.898438 7.3125 -63.453125 C 6.175781 -65.015625 4.800781 -65.929688 3.1875 -66.203125 L 27.453125 -69.890625 L 27.875 -69.890625 C 29.476562 -69.898438 30.285156 -69.101562 30.296875 -67.5 L 30.40625 -49.453125 L 30.5625 -21.1875 C 30.570312 -19.394531 30.203125 -17.878906 29.453125 -16.640625 C 28.703125 -15.398438 27.851562 -14.28125 26.90625 -13.28125 C 25.96875 -12.28125 25.125 -11.28125 24.375 -10.28125 C 23.625 -9.28125 23.253906 -8.117188 23.265625 -6.796875 Z M 23.265625 -6.796875 "/></g></g></g><g fill="#2d4d31" fill-opacity="1"><g transform="translate(81.740461, 101.025255)"><g><path d="M 2.1875 -2.109375 L 1.140625 -2.578125 L -0.0625 -1.421875 L 0.375 -0.375 L 0.015625 -0.015625 L -1.46875 -3.671875 L -1.0625 -4.0625 L 2.546875 -2.453125 Z M -1 -3.59375 L -0.953125 -3.515625 C -0.890625 -3.390625 -0.8125 -3.210938 -0.71875 -2.984375 L -0.234375 -1.8125 L 0.765625 -2.765625 L -0.40625 -3.296875 C -0.53125 -3.347656 -0.660156 -3.410156 -0.796875 -3.484375 Z M -1 -3.59375 "/></g></g></g><g fill="#2d4d31" fill-opacity="1"><g transform="translate(86.919131, 95.689678)"><g><path d="M -1.921875 -2.765625 L -0.875 -1.90625 L 0.40625 -3.484375 L 0.71875 -3.234375 L -0.5625 -1.65625 L 0.59375 -0.71875 L 0.28125 -0.34375 L -2.546875 -2.65625 L -0.90625 -4.65625 L -0.59375 -4.390625 Z M -1.921875 -2.765625 "/></g></g></g><g fill="#2d4d31" fill-opacity="1"><g transform="translate(91.263203, 90.021444)"><g><path d="M 1.609375 -2.546875 L -0.171875 -2.5625 L -0.78125 -1.609375 L 0.5 -0.796875 L 0.234375 -0.375 L -2.859375 -2.328125 L -1.9375 -3.78125 C -1.71875 -4.125 -1.46875 -4.335938 -1.1875 -4.421875 C -0.914062 -4.515625 -0.640625 -4.472656 -0.359375 -4.296875 C -0.128906 -4.148438 0.0195312 -3.960938 0.09375 -3.734375 C 0.164062 -3.503906 0.144531 -3.257812 0.03125 -3 L 1.921875 -3.03125 Z M -0.625 -3.890625 C -0.800781 -4.003906 -0.976562 -4.03125 -1.15625 -3.96875 C -1.332031 -3.90625 -1.492188 -3.757812 -1.640625 -3.53125 L -2.265625 -2.546875 L -1.109375 -1.8125 L -0.46875 -2.8125 C -0.332031 -3.03125 -0.273438 -3.234375 -0.296875 -3.421875 C -0.328125 -3.617188 -0.4375 -3.773438 -0.625 -3.890625 Z M -0.625 -3.890625 "/></g></g></g><g fill="#2d4d31" fill-opacity="1"><g transform="translate(95.154948, 83.361435)"><g><path d="M 0.21875 -0.4375 L -3.0625 -2.046875 L -2.84375 -2.5 L 0.4375 -0.890625 Z M 0.21875 -0.4375 "/></g></g></g><g fill="#2d4d31" fill-opacity="1"><g transform="translate(97.392844, 78.490935)"><g><path d="M -2.40625 -3.0625 C -2.539062 -2.6875 -2.523438 -2.347656 -2.359375 -2.046875 C -2.191406 -1.742188 -1.894531 -1.515625 -1.46875 -1.359375 C -1.039062 -1.203125 -0.660156 -1.1875 -0.328125 -1.3125 C -0.00390625 -1.4375 0.226562 -1.691406 0.375 -2.078125 C 0.550781 -2.554688 0.445312 -3 0.0625 -3.40625 L 0.40625 -3.734375 C 0.644531 -3.484375 0.789062 -3.203125 0.84375 -2.890625 C 0.90625 -2.578125 0.875 -2.25 0.75 -1.90625 C 0.625 -1.5625 0.441406 -1.285156 0.203125 -1.078125 C -0.0234375 -0.878906 -0.296875 -0.765625 -0.609375 -0.734375 C -0.929688 -0.703125 -1.273438 -0.753906 -1.640625 -0.890625 C -2.179688 -1.085938 -2.550781 -1.390625 -2.75 -1.796875 C -2.957031 -2.210938 -2.96875 -2.679688 -2.78125 -3.203125 C -2.644531 -3.578125 -2.457031 -3.859375 -2.21875 -4.046875 C -1.988281 -4.242188 -1.710938 -4.34375 -1.390625 -4.34375 L -1.421875 -3.859375 C -1.640625 -3.835938 -1.832031 -3.757812 -2 -3.625 C -2.175781 -3.488281 -2.3125 -3.300781 -2.40625 -3.0625 Z M -2.40625 -3.0625 "/></g></g></g><g fill="#2d4d31" fill-opacity="1"><g transform="translate(99.818351, 71.147432)"><g><path d="M 0.6875 -2.953125 L -0.4375 -2.78125 L -0.8125 -1.140625 L 0.125 -0.515625 L 0 -0.015625 L -3.21875 -2.296875 L -3.09375 -2.84375 L 0.796875 -3.4375 Z M -2.796875 -2.46875 L -2.734375 -2.421875 C -2.609375 -2.347656 -2.441406 -2.242188 -2.234375 -2.109375 L -1.171875 -1.390625 L -0.859375 -2.734375 L -2.140625 -2.546875 C -2.265625 -2.523438 -2.40625 -2.503906 -2.5625 -2.484375 Z M -2.796875 -2.46875 "/></g></g></g><g clip-path="url(#52b5951814)"><g clip-path="url(#3e5ec66113)"><g clip-path="url(#c91b53784f)"><path fill="#cfd4c1" d="M 94.777344 51.792969 C 94.613281 51.871094 94.394531 52.015625 94.152344 52.085938 C 93.402344 52.304688 92.847656 52.761719 92.339844 53.347656 C 91.238281 54.621094 89.457031 54.59375 88.308594 53.398438 C 88.019531 53.109375 87.816406 52.769531 87.695312 52.382812 C 87.574219 51.992188 87.550781 51.597656 87.625 51.195312 C 87.679688 50.875 87.765625 50.5625 87.820312 50.238281 C 87.863281 50.015625 87.878906 49.785156 87.867188 49.554688 C 87.585938 47.234375 90.253906 45.40625 92.328125 46.472656 C 92.589844 46.585938 92.863281 46.660156 93.144531 46.699219 C 93.691406 46.792969 94.246094 46.859375 94.722656 47.175781 C 96.105469 48.078125 96.515625 50.039062 95.28125 51.386719 C 95.152344 51.527344 94.984375 51.625 94.777344 51.792969 Z M 94.777344 51.792969 " fill-opacity="1" fill-rule="nonzero"/></g></g></g><g clip-path="url(#944f05f580)"><g clip-path="url(#2abd7e54d7)"><g clip-path="url(#31d47d815b)"><path fill="#cfd4c1" d="M 84.292969 46.03125 C 83.550781 45.054688 83.722656 43.394531 85.34375 43.503906 C 86.691406 43.582031 87.769531 44.898438 87.839844 46.207031 C 87.871094 47.058594 87.261719 47.589844 86.414062 47.480469 C 85.703125 47.394531 84.890625 46.953125 84.292969 46.03125 Z M 84.292969 46.03125 " fill-opacity="1" fill-rule="nonzero"/></g></g></g><g clip-path="url(#eadb320b0b)"><g clip-path="url(#e5c2378591)"><g clip-path="url(#8a0c313d86)"><path fill="#cfd4c1" d="M 88.058594 44.300781 C 87.550781 43.59375 87.371094 42.867188 87.5625 42.074219 C 87.828125 40.96875 88.6875 40.738281 89.539062 41.179688 C 90.710938 41.820312 91.339844 43.671875 90.648438 44.875 C 90.351562 45.375 89.921875 45.523438 89.371094 45.351562 C 88.855469 45.195312 88.429688 44.84375 88.058594 44.300781 Z M 88.058594 44.300781 " fill-opacity="1" fill-rule="nonzero"/></g></g></g><g clip-path="url(#a6721fb9b3)"><g clip-path="url(#00b36b2b72)"><g clip-path="url(#bb00df3570)"><path fill="#cfd4c1" d="M 92.0625 45.082031 C 90.765625 43.300781 92.65625 40.671875 94.019531 42.398438 C 94.425781 42.933594 94.625 43.535156 94.617188 44.207031 C 94.621094 44.707031 94.445312 45.136719 94.089844 45.488281 C 93.4375 46.171875 92.511719 45.84375 92.0625 45.082031 Z M 92.0625 45.082031 " fill-opacity="1" fill-rule="nonzero"/></g></g></g><g clip-path="url(#5318630c8a)"><g clip-path="url(#2fd6b8c9ad)"><g clip-path="url(#18fee6f259)"><path fill="#cfd4c1" d="M 86.617188 48.890625 C 86.820312 49.136719 86.925781 49.421875 86.941406 49.742188 C 87.046875 50.863281 85.824219 51.152344 84.949219 50.898438 C 84.117188 50.6875 83.496094 50.183594 83.203125 49.40625 C 82.929688 48.675781 83.234375 48.199219 83.980469 47.925781 C 84.964844 47.570312 85.972656 47.953125 86.617188 48.890625 Z M 86.617188 48.890625 " fill-opacity="1" fill-rule="nonzero"/></g></g></g></g></g></svg>