<svg width="130" height="97" viewBox="0 0 130 97" fill="none" xmlns="http://www.w3.org/2000/svg">
<path d="M129.063 23.2084C129.089 28.7657 128.672 33.9376 127.813 38.7293C128.297 35.5782 128.089 32.9949 127.188 30.9793C126.297 28.9689 124.589 27.9689 122.063 27.9793C120.422 27.9793 119.031 28.2084 117.896 28.6668C116.771 29.1147 115.323 29.3439 113.563 29.3543C111.547 29.3699 109.615 29.0001 107.771 28.2501C105.938 27.5001 104.354 26.4689 103.021 25.1459C101.688 23.8282 100.635 22.2866 99.875 20.5209C99.1094 18.7605 98.7188 16.8699 98.7083 14.8543C98.6771 10.8126 100.109 7.33344 103 4.41678C105.885 1.48969 109.354 0.0157339 113.396 0.000108517C116.297 -0.0103088 118.922 0.729275 121.271 2.22928C123.615 3.72928 125.359 5.73969 126.5 8.25011H126.688C127.714 10.5157 128.359 13.0105 128.625 15.7293C128.901 18.4376 129.047 20.9324 129.063 23.2084ZM76.5625 86.5626C76.5625 88.7032 77.5469 90.4324 79.5208 91.7501C81.4896 93.0574 84.1771 93.5782 87.5833 93.3126C89.4688 93.0522 91.5208 92.5991 93.7292 91.9585C95.9375 91.3074 97.9167 90.4741 99.6667 89.4585C96.5261 91.6251 93.3177 93.3126 90.0417 94.521C86.7604 95.7293 83.4219 96.3439 80.0208 96.3751C73.5729 96.4012 68.2917 94.198 64.1667 89.7501C60.0521 85.2918 57.9688 78.6459 57.9167 69.8126L57.7083 30.6043L57.6458 19.8126L57.625 17.7293C57.6094 15.3282 56.8385 13.0939 55.3125 11.0209C53.7813 8.93761 51.9479 7.71886 49.8125 7.35428L82.1458 2.43761H82.7292C84.8646 2.42719 85.9427 3.48969 85.9583 5.62511L86.1042 29.6876L86.3125 67.3751C86.3229 69.7657 85.8333 71.7866 84.8333 73.4376C83.8333 75.0939 82.6979 76.5834 81.4375 77.9168C80.1875 79.2501 79.0521 80.5834 78.0417 81.9168C77.0417 83.2501 76.5469 84.8022 76.5625 86.5626ZM26.7708 86.8335C26.7708 88.9741 27.7552 90.7032 29.7292 92.021C31.6979 93.3282 34.3802 93.8491 37.7708 93.5835C39.6563 93.323 41.7083 92.8699 43.9167 92.2293C46.125 91.5782 48.1094 90.7449 49.875 89.7293C46.7188 91.896 43.5052 93.5939 40.2292 94.8126C36.9635 96.021 33.625 96.6303 30.2083 96.646C23.776 96.672 18.5 94.4689 14.375 90.021C10.25 85.5626 8.15625 78.9168 8.10417 70.0834L7.89583 30.8751L7.83333 20.0834L7.8125 18.0001C7.79688 15.5991 7.02604 13.3647 5.5 11.2918C3.98438 9.20844 2.15104 7.98969 0 7.62511L32.3542 2.70844H32.9167C35.0521 2.69802 36.1302 3.76053 36.1458 5.89594L36.2917 29.9584L36.5 67.6459C36.5104 70.0366 36.0208 72.0574 35.0208 73.7084C34.0208 75.3647 32.8854 76.8543 31.625 78.1876C30.375 79.5209 29.25 80.8543 28.25 82.1876C27.25 83.5209 26.7552 85.073 26.7708 86.8335Z" fill="#2D4D31"/>
<path d="M105.854 83.7914L104.458 83.1664L102.854 84.7081L103.437 86.1039L102.958 86.5831L100.979 81.7081L101.52 81.1873L106.333 83.3331L105.854 83.7914ZM101.604 81.8123L101.666 81.9164C101.75 82.0831 101.854 82.3227 101.979 82.6248L102.625 84.1873L103.958 82.9164L102.395 82.2081C102.229 82.1404 102.057 82.057 101.875 81.9581L101.604 81.8123Z" fill="#2D4D31"/>
<path d="M107.279 75.8023L108.675 76.9482L110.384 74.844L110.8 75.1773L109.092 77.2815L110.634 78.5315L110.217 79.0315L106.446 75.9482L108.634 73.2815L109.05 73.6357L107.279 75.8023Z" fill="#2D4D31"/>
<path d="M117.78 68.5364L115.405 68.5156L114.592 69.7864L116.301 70.8698L115.947 71.4323L111.822 68.8281L113.051 66.8906C113.342 66.4323 113.676 66.151 114.051 66.0364C114.415 65.9114 114.78 65.9687 115.155 66.2031C115.462 66.401 115.66 66.651 115.759 66.9531C115.853 67.2604 115.827 67.5885 115.676 67.9323L118.197 67.8906L117.78 68.5364ZM114.801 66.7448C114.566 66.5937 114.332 66.5573 114.092 66.6406C113.858 66.7239 113.644 66.9218 113.447 67.2239L112.613 68.5364L114.155 69.5156L115.009 68.1823C115.191 67.8906 115.269 67.6198 115.238 67.3698C115.197 67.1093 115.051 66.901 114.801 66.7448Z" fill="#2D4D31"/>
<path d="M121.115 62.4689L116.74 60.323L117.031 59.7189L121.406 61.8647L121.115 62.4689Z" fill="#2D4D31"/>
<path d="M120.599 52.4748C120.422 52.9748 120.442 53.4279 120.661 53.829C120.885 54.2352 121.281 54.5373 121.849 54.7456C122.422 54.954 122.927 54.9748 123.369 54.8081C123.802 54.6415 124.109 54.3029 124.307 53.7873C124.541 53.1519 124.401 52.5581 123.89 52.0165L124.349 51.579C124.666 51.9123 124.859 52.2873 124.932 52.704C125.015 53.1206 124.974 53.5581 124.807 54.0165C124.64 54.4748 124.396 54.8446 124.078 55.1206C123.776 55.3863 123.411 55.5373 122.994 55.579C122.567 55.6206 122.109 55.5529 121.619 55.3706C120.901 55.1102 120.406 54.704 120.14 54.1623C119.864 53.6102 119.849 52.9852 120.099 52.2873C120.281 51.7873 120.531 51.4123 120.849 51.1623C121.156 50.9019 121.526 50.7665 121.953 50.7665L121.911 51.4123C121.619 51.4436 121.364 51.5477 121.14 51.7248C120.906 51.9071 120.724 52.1571 120.599 52.4748Z" fill="#2D4D31"/>
<path d="M127.958 42.8293L126.458 43.0585L125.958 45.246L127.208 46.0793L127.041 46.746L122.749 43.7043L122.916 42.9751L128.103 42.1835L127.958 42.8293ZM123.312 43.4751L123.395 43.5376C123.562 43.6366 123.786 43.7772 124.062 43.9543L125.478 44.9126L125.895 43.121L124.187 43.371C124.02 43.4022 123.833 43.4283 123.624 43.4543L123.312 43.4751Z" fill="#2D4D31"/>
<mask id="mask0_610_40" style="mask-type:luminance" maskUnits="userSpaceOnUse" x="109" y="13" width="15" height="13">
<path d="M109.95 13.2369H123.283V25.2369H109.95V13.2369Z" fill="white"/>
</mask>
<g mask="url(#mask0_610_40)">
<mask id="mask1_610_40" style="mask-type:luminance" maskUnits="userSpaceOnUse" x="101" y="3" width="25" height="25">
<path d="M101.773 13.4141L115.866 3.72656L125.283 17.4297L111.189 27.112L101.773 13.4141Z" fill="white"/>
</mask>
<g mask="url(#mask1_610_40)">
<mask id="mask2_610_40" style="mask-type:luminance" maskUnits="userSpaceOnUse" x="101" y="3" width="25" height="25">
<path d="M101.773 13.4141L115.866 3.72656L125.283 17.4297L111.189 27.112L101.773 13.4141Z" fill="white"/>
</mask>
<g mask="url(#mask2_610_40)">
<path d="M120.32 20.9609C120.101 21.0651 119.809 21.2578 119.486 21.3515C118.486 21.6432 117.747 22.2526 117.07 23.0338C115.601 24.7318 113.226 24.6953 111.695 23.1015C111.309 22.7161 111.038 22.263 110.877 21.7474C110.716 21.2265 110.684 20.7005 110.783 20.164C110.856 19.737 110.971 19.3203 111.044 18.888C111.101 18.5911 111.122 18.2838 111.106 17.9765C110.731 14.8828 114.288 12.4453 117.054 13.8672C117.403 14.0182 117.768 14.1172 118.143 14.1693C118.872 14.2943 119.611 14.3828 120.247 14.8047C122.091 16.0078 122.637 18.6224 120.992 20.4193C120.82 20.6068 120.596 20.737 120.32 20.9609Z" fill="#CFD4C1"/>
</g>
</g>
</g>
<mask id="mask3_610_40" style="mask-type:luminance" maskUnits="userSpaceOnUse" x="104" y="9" width="8" height="7">
<path d="M104.616 9.23694H111.283V15.9036H104.616V9.23694Z" fill="white"/>
</mask>
<g mask="url(#mask3_610_40)">
<mask id="mask4_610_40" style="mask-type:luminance" maskUnits="userSpaceOnUse" x="101" y="3" width="25" height="25">
<path d="M101.773 13.4141L115.866 3.72656L125.283 17.4297L111.189 27.112L101.773 13.4141Z" fill="white"/>
</mask>
<g mask="url(#mask4_610_40)">
<mask id="mask5_610_40" style="mask-type:luminance" maskUnits="userSpaceOnUse" x="101" y="3" width="25" height="25">
<path d="M101.773 13.4141L115.866 3.72656L125.283 17.4297L111.189 27.112L101.773 13.4141Z" fill="white"/>
</mask>
<g mask="url(#mask5_610_40)">
<path d="M106.34 13.2786C105.351 11.9765 105.58 9.763 107.741 9.90884C109.538 10.013 110.976 11.7682 111.07 13.513C111.111 14.6484 110.299 15.3568 109.168 15.2109C108.221 15.0963 107.137 14.5078 106.34 13.2786Z" fill="#CFD4C1"/>
</g>
</g>
</g>
<mask id="mask6_610_40" style="mask-type:luminance" maskUnits="userSpaceOnUse" x="109" y="5" width="7" height="9">
<path d="M109.95 5.23694H115.283V13.2369H109.95V5.23694Z" fill="white"/>
</mask>
<g mask="url(#mask6_610_40)">
<mask id="mask7_610_40" style="mask-type:luminance" maskUnits="userSpaceOnUse" x="101" y="3" width="25" height="25">
<path d="M101.773 13.4141L115.866 3.72656L125.283 17.4297L111.189 27.112L101.773 13.4141Z" fill="white"/>
</mask>
<g mask="url(#mask7_610_40)">
<mask id="mask8_610_40" style="mask-type:luminance" maskUnits="userSpaceOnUse" x="101" y="3" width="25" height="25">
<path d="M101.773 13.4141L115.866 3.72656L125.283 17.4297L111.189 27.112L101.773 13.4141Z" fill="white"/>
</mask>
<g mask="url(#mask8_610_40)">
<path d="M111.361 10.9713C110.684 10.0286 110.445 9.05985 110.7 8.00256C111.054 6.5286 112.2 6.22131 113.335 6.80985C114.898 7.66402 115.736 10.1328 114.814 11.7369C114.419 12.4036 113.846 12.6015 113.111 12.3724C112.424 12.164 111.856 11.6953 111.361 10.9713Z" fill="#CFD4C1"/>
</g>
</g>
</g>
<mask id="mask9_610_40" style="mask-type:luminance" maskUnits="userSpaceOnUse" x="115" y="6" width="6" height="8">
<path d="M115.283 6.57031H120.617V13.237H115.283V6.57031Z" fill="white"/>
</mask>
<g mask="url(#mask9_610_40)">
<mask id="mask10_610_40" style="mask-type:luminance" maskUnits="userSpaceOnUse" x="101" y="3" width="25" height="25">
<path d="M101.773 13.4141L115.866 3.72656L125.283 17.4297L111.189 27.112L101.773 13.4141Z" fill="white"/>
</mask>
<g mask="url(#mask10_610_40)">
<mask id="mask11_610_40" style="mask-type:luminance" maskUnits="userSpaceOnUse" x="101" y="3" width="25" height="25">
<path d="M101.773 13.4141L115.866 3.72656L125.283 17.4297L111.189 27.112L101.773 13.4141Z" fill="white"/>
</mask>
<g mask="url(#mask11_610_40)">
<path d="M116.7 12.0131C114.971 9.63807 117.492 6.13286 119.309 8.43495C119.851 9.14849 120.117 9.95057 120.106 10.8464C120.111 11.5131 119.877 12.086 119.403 12.5547C118.533 13.4662 117.299 13.0287 116.7 12.0131Z" fill="#CFD4C1"/>
</g>
</g>
</g>
<mask id="mask12_610_40" style="mask-type:luminance" maskUnits="userSpaceOnUse" x="104" y="14" width="6" height="6">
<path d="M104.616 14.5703H109.95V19.9036H104.616V14.5703Z" fill="white"/>
</mask>
<g mask="url(#mask12_610_40)">
<mask id="mask13_610_40" style="mask-type:luminance" maskUnits="userSpaceOnUse" x="101" y="3" width="25" height="25">
<path d="M101.773 13.4141L115.866 3.72656L125.283 17.4297L111.189 27.112L101.773 13.4141Z" fill="white"/>
</mask>
<g mask="url(#mask13_610_40)">
<mask id="mask14_610_40" style="mask-type:luminance" maskUnits="userSpaceOnUse" x="101" y="3" width="25" height="25">
<path d="M101.773 13.4141L115.866 3.72656L125.283 17.4297L111.189 27.112L101.773 13.4141Z" fill="white"/>
</mask>
<g mask="url(#mask14_610_40)">
<path d="M109.439 17.0912C109.71 17.4193 109.851 17.7995 109.872 18.2266C110.012 19.7214 108.382 20.1068 107.215 19.7683C106.106 19.487 105.278 18.8152 104.887 17.7787C104.523 16.8047 104.929 16.1693 105.924 15.8047C107.236 15.3308 108.58 15.8412 109.439 17.0912Z" fill="#CFD4C1"/>
</g>
</g>
</g>
</svg>
